<?xml version="1.0" encoding="utf-8"?>
<!-- Generator: Adobe Illustrator 16.0.0, SVG Export Plug-In . SVG Version: 6.00 Build 0)  -->
<!DOCTYPE svg PUBLIC "-//W3C//DTD SVG 1.1//EN" "http://www.w3.org/Graphics/SVG/1.1/DTD/svg11.dtd">
<svg version="1.1" id="Layer_1" xmlns="http://www.w3.org/2000/svg" xmlns:xlink="http://www.w3.org/1999/xlink" x="0px" y="0px"
	 width="251.167px" height="250.625px" viewBox="0 0 251.167 250.625" enable-background="new 0 0 251.167 250.625"
	 xml:space="preserve">
<path fill="#6633FE" d="M-0.093,251.552c0-84.16,0-168.32,0-252.48c84.16,0,168.32,0,252.48,0c0,84.161,0,168.32,0,252.48
	C168.227,251.552,84.067,251.552-0.093,251.552z M150.951,136.891c0,28.655,0,57.229,0,85.767c5.696,0,11.311,0,16.717,0
	c0-15.265,0-30.434,0-45.548c0.443,0.589,0.965,1.22,1.422,1.894c3.502,5.164,7.602,9.84,11.83,14.408
	c1.562,1.687,3.103,3.391,4.627,5.109c2.306,2.602,4.567,5.243,6.893,7.828c0.889,0.988,2.514,0.8,3.283-0.273
	c0.251-0.35,0.513-0.695,0.801-1.013c1.764-1.935,3.559-3.841,5.297-5.796c2.915-3.277,5.828-6.557,8.682-9.889
	c2.097-2.448,4.119-4.961,6.127-7.484c1.197-1.505,2.3-3.086,3.479-4.682c0,15.233,0,30.353,0,45.451c5.647,0,11.261,0,16.865,0
	c0-28.637,0-57.184,0-86c-0.785,0.211-1.646,0.196-2.111,0.617c-0.985,0.889-1.743,2.024-2.637,3.021
	c-3.591,4.011-7.202,8.006-10.8,12.012c-2.01,2.236-4.004,4.486-6.012,6.727c-3.515,3.92-7.023,7.844-10.554,11.75
	c-2.524,2.795-5.071,5.567-7.618,8.344c-0.996,1.087-2.019,2.152-3.138,3.344c-2.425-2.709-4.813-5.402-7.231-8.072
	c-3.328-3.671-6.679-7.32-10.015-10.984c-2.374-2.605-4.737-5.223-7.112-7.83c-3.31-3.633-6.613-7.27-9.938-10.893
	c-2.121-2.311-4.354-4.523-6.364-6.927C152.697,136.878,151.989,136.738,150.951,136.891z M61.552,222.751
	c5.625,0,11.102,0.012,16.579-0.027c0.32-0.002,0.803-0.331,0.93-0.628c1.134-2.649,2.215-5.322,3.288-7.998
	c0.278-0.695,0.65-0.976,1.475-0.972c10.718,0.039,21.437,0.025,32.155,0.025c0.317,0,0.635,0,0.959,0
	c1.241,2.924,2.516,5.773,3.643,8.682c0.292,0.754,0.61,0.934,1.331,0.931c5.359-0.021,10.718-0.013,16.078-0.013
	c0.508,0,1.014,0,1.67,0c-2.014-4.477-3.949-8.813-5.916-13.137c-1.761-3.875-3.572-7.729-5.328-11.605
	c-3.015-6.647-5.991-13.313-9.002-19.961c-2.82-6.223-5.668-12.432-8.501-18.648c-1.149-2.521-2.302-5.044-3.438-7.572
	c-2.126-4.734-4.225-9.48-6.394-14.195c-0.173-0.375-0.811-0.746-1.228-0.741c-0.419,0.004-1.031,0.387-1.215,0.769
	c-0.965,2.002-1.831,4.053-2.714,6.094c-2.293,5.297-4.565,10.602-6.869,15.892c-1.76,4.042-3.568,8.063-5.333,12.103
	c-2.092,4.789-4.155,9.59-6.24,14.381c-1.681,3.863-3.384,7.718-5.065,11.58c-2.131,4.898-4.25,9.803-6.375,14.703
	C64.569,215.802,63.096,219.196,61.552,222.751z"/>
<path fill="#F0F6FC" d="M150.951,136.891c1.038-0.153,1.746-0.013,2.493,0.881c2.011,2.401,4.243,4.616,6.364,6.927
	c3.322,3.621,6.628,7.26,9.938,10.893c2.375,2.607,4.738,5.225,7.112,7.83c3.336,3.664,6.687,7.313,10.015,10.984
	c2.418,2.67,4.808,5.363,7.231,8.072c1.119-1.191,2.142-2.257,3.138-3.344c2.547-2.775,5.094-5.549,7.618-8.344
	c3.529-3.906,7.039-7.83,10.554-11.75c2.008-2.238,4.002-4.488,6.012-6.727c3.598-4.006,7.209-8.001,10.8-12.012
	c0.894-0.997,1.649-2.135,2.637-3.021c0.468-0.421,1.326-0.406,2.111-0.617c0,28.816,0,57.363,0,86c-5.604,0-11.218,0-16.865,0
	c0-15.1,0-30.217,0-45.451c-1.181,1.596-2.282,3.177-3.479,4.682c-2.008,2.523-4.03,5.036-6.127,7.484
	c-2.854,3.332-5.767,6.611-8.682,9.889c-1.738,1.955-3.533,3.861-5.297,5.796c-0.288,0.317-0.55,0.663-0.801,1.013
	c-0.771,1.073-2.395,1.262-3.283,0.273c-2.324-2.585-4.587-5.227-6.893-7.828c-1.524-1.721-3.065-3.424-4.627-5.109
	c-4.229-4.568-8.328-9.244-11.83-14.408c-0.457-0.674-0.979-1.305-1.422-1.894c0,15.114,0,30.283,0,45.548
	c-5.406,0-11.021,0-16.717,0C150.951,194.121,150.951,165.546,150.951,136.891z"/>
<path fill="#F0F6FC" d="M61.552,222.751c1.544-3.557,3.017-6.949,4.488-10.342c2.125-4.9,4.244-9.805,6.375-14.703
	c1.681-3.863,3.384-7.717,5.065-11.58c2.085-4.791,4.148-9.592,6.24-14.381c1.765-4.039,3.572-8.061,5.333-12.103
	c2.304-5.29,4.576-10.595,6.869-15.892c0.883-2.041,1.749-4.092,2.714-6.094c0.184-0.382,0.796-0.765,1.215-0.769
	c0.417-0.005,1.055,0.366,1.228,0.741c2.169,4.715,4.268,9.461,6.394,14.195c1.136,2.528,2.288,5.051,3.438,7.572
	c2.833,6.217,5.681,12.428,8.501,18.648c3.012,6.647,5.988,13.313,9.001,19.961c1.758,3.877,3.568,7.729,5.33,11.604
	c1.965,4.324,3.901,8.661,5.916,13.138c-0.656,0-1.164,0-1.671,0c-5.358,0-10.719-0.01-16.078,0.013
	c-0.721,0.003-1.039-0.177-1.331-0.931c-1.127-2.908-2.401-5.758-3.643-8.682c-0.324,0-0.642,0-0.959,0
	c-10.718,0-21.437,0.014-32.155-0.025c-0.825-0.004-1.197,0.275-1.475,0.972c-1.073,2.676-2.154,5.349-3.288,7.997
	c-0.127,0.298-0.61,0.627-0.93,0.629C72.654,222.763,67.177,222.751,61.552,222.751z M110.551,198.228
	c-3.846-9.596-8.153-18.85-10.957-28.723c-2.582,9.963-6.982,19.174-10.815,28.723C96.09,198.228,103.154,198.228,110.551,198.228z"
	/>
<path fill="#6633FE" d="M110.551,198.228c-7.397,0-14.461,0-21.772,0c3.833-9.549,8.233-18.76,10.815-28.723
	C102.398,179.378,106.706,188.632,110.551,198.228z"/>
</svg>
